Coordinates
nRows=240
nColumns=2
inDegrees=yes
endheader
time	ankle_angle_r	
2.29536	 18.797243	
2.32863	 18.768311	
2.3619	 18.753052	
2.39516	 18.781694	
2.42843	 18.768311	
2.46169	 18.711412	
2.49496	 18.803158	
2.52823	 18.755314	
2.56149	 18.750692	
2.59476	 18.798828	
2.62802	 18.770863	
2.66129	 18.772974	
2.69456	 18.808596	
2.72782	 18.780727	
2.76109	 18.808210	
2.79435	 18.817122	
2.82762	 18.753052	
2.86089	 18.798828	
2.89415	 18.807436	
2.92742	 18.768311	
2.96069	 18.849306	
2.99395	 18.810471	
3.02722	 18.795116	
3.06048	 18.833178	
3.09375	 18.829346	
3.12702	 18.798828	
3.16028	 18.825247	
3.19355	 18.855667	
3.22681	 18.792154	
3.26008	 18.822865	
3.29335	 18.849091	
3.32661	 18.807993	
3.35988	 18.814087	
3.39315	 18.818863	
3.42641	 18.773184	
3.45968	 18.829346	
3.49294	 18.814087	
3.52621	 18.788733	
3.55948	 18.824606	
3.59274	 18.834702	
3.62601	 18.779215	
3.65927	 18.808538	
3.69254	 18.789215	
3.72581	 18.768311	
3.75907	 18.810507	
3.79234	 18.774246	
3.8256	 18.768311	
3.85887	 18.814087	
3.89214	 18.759277	
3.9254	 18.789892	
3.95867	 18.811666	
3.99194	 18.774826	
4.0252	 18.729147	
4.05847	 18.790279	
4.09173	 18.737793	
4.125	 18.753052	
4.15827	 18.798828	
4.19153	 18.753052	
4.2248	 18.782696	
4.25806	 18.821377	
4.29133	 18.790956	
4.3246	 18.730310	
4.35786	 18.791149	
4.39113	 18.745375	
4.4244	 18.715048	
4.45766	 18.767830	
4.49093	 18.753052	
4.52419	 18.729731	
4.55746	 18.760151	
4.59073	 18.744795	
4.62399	 18.722534	
4.65726	 18.768311	
4.69052	 18.727413	
4.72379	 18.751024	
4.75706	 18.783569	
4.79032	 18.735378	
4.82359	 18.780962	
4.85685	 18.777340	
4.89012	 18.756046	
4.92339	 18.774345	
4.95665	 18.783569	
4.98992	 18.749477	
5.02319	 18.789314	
5.05645	 18.783569	
5.08972	 18.753052	
5.12298	 18.793373	
5.15625	 18.783569	
5.18952	 18.763048	
5.22278	 18.773239	
5.25605	 18.788637	
5.28931	 18.722534	
5.32258	 18.773186	
5.35585	 18.804529	
5.38911	 18.743689	
5.42238	 18.789658	
5.45565	 18.789850	
5.48891	 18.768311	
5.52218	 18.768311	
5.55544	 18.759914	
5.58871	 18.733690	
5.62198	 18.772316	
5.65524	 18.741701	
5.68851	 18.737793	
5.72177	 18.779854	
5.75504	 18.722534	
5.78831	 18.737793	
5.82157	 18.753052	
5.85484	 18.710604	
5.8881	 18.710506	
5.92137	 18.753052	
5.95464	 18.710314	
5.9879	 18.722534	
6.02117	 18.753052	
6.05444	 18.719786	
6.0877	 18.719883	
6.12097	 18.737793	
6.15423	 18.724993	
6.1875	 18.709637	
6.22077	 18.755316	
6.25403	 18.739962	
6.2873	 18.718391	
6.32056	 18.796854	
6.35383	 18.783569	
6.3871	 18.737793	
6.42036	 18.810717	
6.45363	 18.769899	
6.4869	 18.725517	
6.52016	 18.827951	
6.55343	 18.754349	
6.58669	 18.784771	
6.61996	 18.829346	
6.65323	 18.781553	
6.68649	 18.842783	
6.71976	 18.814087	
6.75302	 18.798828	
6.78629	 18.829346	
6.81956	 18.843555	
6.85282	 18.753052	
6.88609	 18.843943	
6.91935	 18.829815	
6.95262	 18.783569	
6.98589	 18.814129	
7.01915	 18.798939	
7.05242	 18.798828	
7.08569	 18.829596	
7.11895	 18.829691	
7.15222	 18.814087	
7.18548	 18.844065	
7.21875	 18.843969	
7.25202	 18.785034	
7.28528	 18.814917	
7.31855	 18.828421	
7.35181	 18.783569	
7.38508	 18.811848	
7.41835	 18.814087	
7.45161	 18.741732	
7.48488	 18.782160	
7.51815	 18.786581	
7.55141	 18.765106	
7.58468	 18.795429	
7.61794	 18.739590	
7.65121	 18.751160	
7.68448	 18.743761	
7.71774	 18.728792	
7.75101	 18.737793	
7.78427	 18.755331	
7.81754	 18.748299	
7.85081	 18.725006	
7.88407	 18.768311	
7.91734	 18.722534	
7.9506	 18.725298	
7.98387	 18.737793	
8.01714	 18.719578	
8.0504	 18.710329	
8.08367	 18.768311	
8.11694	 18.722534	
8.1502	 18.719191	
8.18347	 18.764872	
8.21673	 18.722534	
8.25	 18.703642	
8.28327	 18.737793	
8.31653	 18.733967	
8.3498	 18.699863	
8.38306	 18.757072	
8.41633	 18.737793	
8.4496	 18.692017	
8.48286	 18.746412	
8.51613	 18.733387	
8.5494	 18.737793	
8.58266	 18.753052	
8.61593	 18.727230	
8.64919	 18.769190	
8.68246	 18.783569	
8.71573	 18.753052	
8.74899	 18.768311	
8.78226	 18.783569	
8.81552	 18.722534	
8.84879	 18.778196	
8.88206	 18.773781	
8.91532	 18.762743	
8.94859	 18.798828	
8.98185	 18.783569	
9.01512	 18.749506	
9.04839	 18.786921	
9.08165	 18.792778	
9.11492	 18.753052	
9.14819	 18.798828	
9.18145	 18.783569	
9.21472	 18.753052	
9.24798	 18.798828	
9.28125	 18.798828	
9.31452	 18.768311	
9.34778	 18.775135	
9.38105	 18.807167	
9.41431	 18.739017	
9.44758	 18.769342	
9.48085	 18.783569	
9.51411	 18.737793	
9.54738	 18.790974	
9.58065	 18.798571	
9.61391	 18.737793	
9.64718	 18.776005	
9.68044	 18.753052	
9.71371	 18.737278	
9.74698	 18.753761	
9.78024	 18.745874	
9.81351	 18.730711	
9.84677	 18.776585	
9.88004	 18.739275	
9.91331	 18.741144	
9.94657	 18.753052	
9.97984	 18.737793	
10.0131	 18.722534	
10.0464	 18.755501	
10.0796	 18.728842	
10.1129	 18.737793	
10.1462	 18.768311	
10.1794	 18.737793	
10.2127	 18.728455	
10.246	 18.768311	
